<?xml version="1.0" encoding="UTF-8" standalone="no" ?>
<!DOCTYPE svg PUBLIC "-//W3C//DTD SVG 1.1//EN" "http://www.w3.org/Graphics/SVG/1.1/DTD/svg11.dtd">
<svg xmlns="http://www.w3.org/2000/svg" xmlns:xlink="http://www.w3.org/1999/xlink" version="1.1" width="1200" height="600" viewBox="0 0 1200 600" xml:space="preserve">
<desc>Created with Fabric.js 5.3.0</desc>
<defs>
</defs>
<g transform="matrix(2.8095496497 0 0 2.8095496497 200.1620378003 299.2976125876)" id="DyDIa4huRMezGS6BWYT5s"  >
<path style="stroke: rgb(0,0,0); stroke-width: 1; stroke-dasharray: none; stroke-linecap: butt; stroke-dashoffset: 0; stroke-linejoin: miter; stroke-miterlimit: 4; fill: rgb(255,255,255); fill-opacity: 0; fill-rule: nonzero; opacity: 1;"  transform=" translate(0, 0)" d="M -38.42068 -67.3712 C -41.54651 -67.3712 -44.0805 -64.83721 -44.0805 -61.711380000000005 L -44.0805 59.29747999999999 L -44.0805 59.29747999999999 C -44.0805 63.75646999999999 -40.46577 67.37119999999999 -36.00678 67.37119999999999 L -30.864649999999997 67.37119999999999 L -30.864649999999997 67.37119999999999 C -26.125649999999997 67.37119999999999 -22.283939999999998 63.529479999999985 -22.283939999999998 58.79048999999999 L -22.283939999999998 9.925789999999992 L -22.283939999999998 9.925789999999992 C -22.283939999999998 9.173709999999993 -21.770909999999997 8.518639999999992 -21.04076 8.338389999999992 C -20.310599999999997 8.158139999999992 -19.55166 8.49920999999999 -19.20167 9.16488999999999 L 8.35585 61.578219999999995 L 8.35585 61.578219999999995 C 10.22881 65.14050999999999 13.921890000000001 67.37120999999999 17.946550000000002 67.37120999999999 L 31.87722 67.37120999999999 L -2.7739699999999985 -2.5499400000000065 L -2.7739699999999985 -2.5499400000000065 C -4.196709999999999 -5.420820000000006 -3.8069599999999983 -8.858750000000008 -1.7776699999999985 -11.338290000000006 L 44.0805 -67.3712 L 23.71571 -67.3712 L 23.71571 -67.3712 C 20.41241 -67.3712 17.2682 -65.95251 15.082400000000002 -63.47579 L -18.54526 -25.372350000000004 L -18.54526 -25.372350000000004 C -19.13318 -24.706180000000003 -20.07199 -24.473370000000003 -20.90305 -24.787640000000003 C -21.73411 -25.101910000000004 -22.28395 -25.897690000000004 -22.28395 -26.78618 L -22.28395 -61.20438 L -22.28395 -61.20438 C -22.28395 -64.61022 -25.04493 -67.37119 -28.450760000000002 -67.37119 z" stroke-linecap="round" />
</g>
<g transform="matrix(2.1596154899 0 0 2.8095496497 380.6134040267 371.670416696)" id="7UQDRR4kmXJ8H7OoTDQXe"  >
<path style="stroke: rgb(0,0,0); stroke-width: 1; stroke-dasharray: none; stroke-linecap: butt; stroke-dashoffset: 0; stroke-linejoin: miter; stroke-miterlimit: 4; fill: none; fill-rule: nonzero; opacity: 1;"  transform=" translate(0, 0)" d="M 0 -41.61163 C 22.96962 -41.61163 41.61163 -22.96962 41.61163 0 C 41.61163 22.96962 22.96962 41.61163 0 41.61163 C -22.96962 41.61163 -41.61163 22.96962 -41.61163 0 C -41.61163 -22.96962 -22.96962 -41.61163 0 -41.61163 z" stroke-linecap="round" />
</g>
<g transform="matrix(2.2700884941 0 0 2.2700884941 966.8207627831 403.8204880355)" id="ZD_Ih6e3iUpKLn4fG2UIt"  >
<path style="stroke: rgb(0,0,0); stroke-width: 1; stroke-dasharray: none; stroke-linecap: butt; stroke-dashoffset: 0; stroke-linejoin: miter; stroke-miterlimit: 4; fill: rgb(255,255,255); fill-opacity: 0; fill-rule: nonzero; opacity: 1;"  transform=" translate(0, 0)" d="M -32.14863 41.86163 C -32.14863 41.86163 -41.23954 -41.86163 0.9682500000000047 -41.86163 C 43.17604000000001 -41.86163 31.487730000000006 41.86163 31.487730000000006 41.86163 L 19.431090000000005 41.86163 C 19.431090000000005 41.86163 22.171630000000004 -4.1578599999999994 3.989810000000004 -4.807210000000005 C -14.192009999999994 -5.456560000000005 -12.018759999999995 41.86163 -12.018759999999995 41.86163 z" stroke-linecap="round" />
</g>
<g transform="matrix(2.8095496497 0 0 2.8095496497 596.8676665374 380.9680287199)" id="tdjvuTgnREKPIt2B_diBa"  >
<path style="stroke: rgb(0,0,0); stroke-width: 1; stroke-dasharray: none; stroke-linecap: butt; stroke-dashoffset: 0; stroke-linejoin: miter; stroke-miterlimit: 4; fill: rgb(255,255,255); fill-opacity: 0; fill-rule: nonzero; opacity: 1;"  transform=" translate(2.661e-7, 0)" d="M -32.14863 41.86163 C -32.14863 41.86163 -41.23954 -41.86163 0.9682500000000047 -41.86163 C 43.17604000000001 -41.86163 31.487730000000006 41.86163 31.487730000000006 41.86163 L 19.431090000000005 41.86163 C 19.431090000000005 41.86163 22.171630000000004 -4.1578599999999994 3.989810000000004 -4.807210000000005 C -14.192009999999994 -5.456560000000005 -12.018759999999995 41.86163 -12.018759999999995 41.86163 z" stroke-linecap="round" />
</g>
<g transform="matrix(2.543843448 0 0 2.543843448 786.4037686363 392.2237765259)" id="MRLSNQvP03vh43tRagtm9"  >
<path style="stroke: rgb(0,0,0); stroke-width: 1; stroke-dasharray: none; stroke-linecap: butt; stroke-dashoffset: 0; stroke-linejoin: miter; stroke-miterlimit: 4; fill: rgb(255,255,255); fill-opacity: 0; fill-rule: nonzero; opacity: 1;"  transform=" translate(0, 0)" d="M -32.14863 41.86163 C -32.14863 41.86163 -41.23954 -41.86163 0.9682500000000047 -41.86163 C 43.17604000000001 -41.86163 31.487730000000006 41.86163 31.487730000000006 41.86163 L 19.431090000000005 41.86163 C 19.431090000000005 41.86163 22.171630000000004 -4.1578599999999994 3.989810000000004 -4.807210000000005 C -14.192009999999994 -5.456560000000005 -12.018759999999995 41.86163 -12.018759999999995 41.86163 z" stroke-linecap="round" />
</g>
<g transform="matrix(-1.2241837698 -0.0213682072 0.0174524064 -0.9998476952 375.57393683 376.0186717394)" id="Va9wgfU4cGzIp98cHhNHo"  >
<path style="stroke: rgb(0,0,0); stroke-width: 2; stroke-dasharray: none; stroke-linecap: butt; stroke-dashoffset: 0; stroke-linejoin: miter; stroke-miterlimit: 4; fill: none; fill-rule: nonzero; opacity: 1;"  transform=" translate(0, 0)" d="M -9.81308 -49.07407 C 17.27581 -49.07407 39.26099 -27.08888 39.26099 0 C 39.26099 27.08889 17.2758 49.07407 -9.81308 49.07407 C -36.90197 49.07407 -39.26099 27.08888 -39.26099 0 C -39.26099 -27.08889 -36.90197 -49.07407 -9.81308 -49.07407 z" stroke-linecap="round" />
</g>
</svg>